<?xml version="1.0" encoding="UTF-8"?>
<svg width="256px" height="256px" viewBox="0 0 256 256" version="1.1" xmlns="http://www.w3.org/2000/svg" xmlns:xlink="http://www.w3.org/1999/xlink">
    <title>Artboard1212</title>
    <g id="Artboard1212" stroke="none" stroke-width="1" fill="none" fill-rule="evenodd">
        <g id="Group" transform="translate(33.000000, 26.000000)" fill="#FFFFFF">
            <path d="M95,0 C147.467051,0 190,42.5377131 190,95.0106415 C190,104.420773 188.632125,113.511385 186.084387,122.094445 C184.548818,128.520025 178.768734,133.296902 171.872952,133.296902 C163.803167,133.296902 157.261314,126.755049 157.261314,118.685264 C157.261314,116.563113 157.713721,114.546627 158.527351,112.726991 L158.38943,113.237574 C159.940228,107.670672 160.769231,101.802905 160.769231,95.7414926 C160.769231,59.8177185 131.65052,30.6957457 95.7307692,30.6957457 C59.8110188,30.6957457 30.6923077,59.8177185 30.6923077,95.7414926 C30.6923077,130.739733 58.3299284,159.282138 92.9684036,160.72963 L92.968,160.78 L93.2709562,160.776724 C101.235939,160.776724 107.712418,167.149762 107.879295,175.074739 L107.882594,175.388362 C107.882594,183.458147 101.340741,190 93.2709562,190 C93.1695021,190 93.0682895,189.998966 92.9673284,189.996908 L92.9673993,189.999967 C41.4388404,188.918258 0,146.804272 0,95.0106415 C0,42.5377131 42.5329488,0 95,0 Z" id="Combined-Shape"></path>
            <path d="M88.1655822,133.746371 L177.833716,133.996815 C182.234516,134.009106 185.799021,137.57359 185.811341,141.974389 L185.85673,158.188875 C185.869099,162.607135 182.297417,166.19887 177.879156,166.211238 C177.864244,166.21128 177.849331,166.21128 177.834418,166.211238 L88.1662839,165.960794 C83.7654845,165.948502 80.2009785,162.384019 80.1886592,157.98322 L80.1432696,141.768734 C80.1309014,137.350473 83.702583,133.758739 88.1208437,133.746371 C88.1357565,133.746329 88.1506694,133.746329 88.1655822,133.746371 Z" id="Rectangle" transform="translate(133.000000, 149.978804) rotate(56.000000) translate(-133.000000, -149.978804) "></path>
        </g>
    </g>
</svg>